<?xml version="1.0" encoding="UTF-8"?><svg xmlns="http://www.w3.org/2000/svg" viewBox="0 0 303.68 103.01"><defs><style>.d,.e,.f{fill:#1e1e1e;}.e{stroke:#fff8e8;stroke-miterlimit:10;stroke-width:2px;}.f{font-family:IceCream-Standard, Ice Cream;font-size:89.81px;}</style></defs><g id="a"/><g id="b"><g id="c"><path class="d" d="M191.67,45.98c3.27-9.08,7.88-21.86,16.94-22.92,8.39-.98,17.9,8.43,18.87,17.84,.67,6.53-2.92,11.54-9.91,20.64-7.34,9.56-16.67,21.32-27.91,34.63-5.6-23.73-1.29-41.03,2.01-50.19Z"/><path class="e" d="M173.93,16.82c13.77,.78,22.38,24.4,24.08,39.86,1.95,17.8-4.46,32.27-8.35,39.48-5.57-17.83-12.89-30.81-18.95-39.73-8.45-12.44-16.25-19.66-13.8-27.89,1.97-6.63,10.05-12.11,17.03-11.72Z"/><text class="f" transform="translate(0 76.34)"><tspan x="0" y="0">Lipi</tspan></text><text class="f" transform="translate(229.95 76.34)"><tspan x="0" y="0">ir</tspan></text></g></g></svg>